<mxfile host="app.diagrams.net" agent="Mozilla/5.0 (Windows NT 10.0; Win64; x64) AppleWebKit/537.36 (KHTML, like Gecko) Chrome/129.0.0.0 Safari/537.36" version="24.7.17">
  <diagram name="Página-1" id="GAdThSu3tVUVZats3qce">
    <mxGraphModel dx="2087" dy="1336" grid="0" gridSize="10" guides="1" tooltips="1" connect="1" arrows="1" fold="1" page="0" pageScale="1" pageWidth="827" pageHeight="1169" math="0" shadow="0">
      <root>
        <mxCell id="0" />
        <mxCell id="1" parent="0" />
        <mxCell id="cijd9OobjxeHUl-b34iq-1" value="Ranura" style="swimlane;fontStyle=1;align=center;verticalAlign=top;childLayout=stackLayout;horizontal=1;startSize=26;horizontalStack=0;resizeParent=1;resizeParentMax=0;resizeLast=0;collapsible=1;marginBottom=0;whiteSpace=wrap;html=1;" parent="1" vertex="1">
          <mxGeometry x="310" y="-187" width="284" height="74" as="geometry" />
        </mxCell>
        <mxCell id="cijd9OobjxeHUl-b34iq-3" value="" style="line;strokeWidth=1;fillColor=none;align=left;verticalAlign=middle;spacingTop=-1;spacingLeft=3;spacingRight=3;rotatable=0;labelPosition=right;points=[];portConstraint=eastwest;strokeColor=inherit;" parent="cijd9OobjxeHUl-b34iq-1" vertex="1">
          <mxGeometry y="26" width="284" height="8" as="geometry" />
        </mxCell>
        <mxCell id="cijd9OobjxeHUl-b34iq-4" value="+ recibirFicha(Ficha, MáquinaDeVideojuegos&lt;span style=&quot;background-color: initial;&quot;&gt;)&lt;/span&gt;" style="text;strokeColor=none;fillColor=none;align=left;verticalAlign=top;spacingLeft=4;spacingRight=4;overflow=hidden;rotatable=0;points=[[0,0.5],[1,0.5]];portConstraint=eastwest;whiteSpace=wrap;html=1;" parent="cijd9OobjxeHUl-b34iq-1" vertex="1">
          <mxGeometry y="34" width="284" height="40" as="geometry" />
        </mxCell>
        <mxCell id="cijd9OobjxeHUl-b34iq-5" value="BotónDeInicio" style="swimlane;fontStyle=1;align=center;verticalAlign=top;childLayout=stackLayout;horizontal=1;startSize=26;horizontalStack=0;resizeParent=1;resizeParentMax=0;resizeLast=0;collapsible=1;marginBottom=0;whiteSpace=wrap;html=1;" parent="1" vertex="1">
          <mxGeometry x="258" y="-295" width="339" height="60" as="geometry" />
        </mxCell>
        <mxCell id="cijd9OobjxeHUl-b34iq-7" value="" style="line;strokeWidth=1;fillColor=none;align=left;verticalAlign=middle;spacingTop=-1;spacingLeft=3;spacingRight=3;rotatable=0;labelPosition=right;points=[];portConstraint=eastwest;strokeColor=inherit;" parent="cijd9OobjxeHUl-b34iq-5" vertex="1">
          <mxGeometry y="26" width="339" height="8" as="geometry" />
        </mxCell>
        <mxCell id="cijd9OobjxeHUl-b34iq-8" value="+ pulsar(MáquinaDeVideojuegos)" style="text;strokeColor=none;fillColor=none;align=left;verticalAlign=top;spacingLeft=4;spacingRight=4;overflow=hidden;rotatable=0;points=[[0,0.5],[1,0.5]];portConstraint=eastwest;whiteSpace=wrap;html=1;" parent="cijd9OobjxeHUl-b34iq-5" vertex="1">
          <mxGeometry y="34" width="339" height="26" as="geometry" />
        </mxCell>
        <mxCell id="cijd9OobjxeHUl-b34iq-9" value="MáquinaDeVideojuegos" style="swimlane;fontStyle=1;align=center;verticalAlign=top;childLayout=stackLayout;horizontal=1;startSize=26;horizontalStack=0;resizeParent=1;resizeParentMax=0;resizeLast=0;collapsible=1;marginBottom=0;whiteSpace=wrap;html=1;" parent="1" vertex="1">
          <mxGeometry x="-165" y="-284" width="237" height="164" as="geometry" />
        </mxCell>
        <mxCell id="cijd9OobjxeHUl-b34iq-43" value="+ ranura: Ranura" style="text;strokeColor=none;fillColor=none;align=left;verticalAlign=top;spacingLeft=4;spacingRight=4;overflow=hidden;rotatable=0;points=[[0,0.5],[1,0.5]];portConstraint=eastwest;whiteSpace=wrap;html=1;" parent="cijd9OobjxeHUl-b34iq-9" vertex="1">
          <mxGeometry y="26" width="237" height="26" as="geometry" />
        </mxCell>
        <mxCell id="cijd9OobjxeHUl-b34iq-11" value="" style="line;strokeWidth=1;fillColor=none;align=left;verticalAlign=middle;spacingTop=-1;spacingLeft=3;spacingRight=3;rotatable=0;labelPosition=right;points=[];portConstraint=eastwest;strokeColor=inherit;" parent="cijd9OobjxeHUl-b34iq-9" vertex="1">
          <mxGeometry y="52" width="237" height="8" as="geometry" />
        </mxCell>
        <mxCell id="cijd9OobjxeHUl-b34iq-44" value="+ recibirFicha(Ficha)" style="text;strokeColor=none;fillColor=none;align=left;verticalAlign=top;spacingLeft=4;spacingRight=4;overflow=hidden;rotatable=0;points=[[0,0.5],[1,0.5]];portConstraint=eastwest;whiteSpace=wrap;html=1;" parent="cijd9OobjxeHUl-b34iq-9" vertex="1">
          <mxGeometry y="60" width="237" height="26" as="geometry" />
        </mxCell>
        <mxCell id="ARflq7UUchkOkLwa70od-7" value="+ pulsarBotónInicio()" style="text;strokeColor=none;fillColor=none;align=left;verticalAlign=top;spacingLeft=4;spacingRight=4;overflow=hidden;rotatable=0;points=[[0,0.5],[1,0.5]];portConstraint=eastwest;whiteSpace=wrap;html=1;" vertex="1" parent="cijd9OobjxeHUl-b34iq-9">
          <mxGeometry y="86" width="237" height="26" as="geometry" />
        </mxCell>
        <mxCell id="ARflq7UUchkOkLwa70od-24" value="+ terminarPartida()" style="text;strokeColor=none;fillColor=none;align=left;verticalAlign=top;spacingLeft=4;spacingRight=4;overflow=hidden;rotatable=0;points=[[0,0.5],[1,0.5]];portConstraint=eastwest;whiteSpace=wrap;html=1;" vertex="1" parent="cijd9OobjxeHUl-b34iq-9">
          <mxGeometry y="112" width="237" height="26" as="geometry" />
        </mxCell>
        <mxCell id="cijd9OobjxeHUl-b34iq-13" value="+ encender()" style="text;strokeColor=none;fillColor=none;align=left;verticalAlign=top;spacingLeft=4;spacingRight=4;overflow=hidden;rotatable=0;points=[[0,0.5],[1,0.5]];portConstraint=eastwest;whiteSpace=wrap;html=1;" parent="cijd9OobjxeHUl-b34iq-9" vertex="1">
          <mxGeometry y="138" width="237" height="26" as="geometry" />
        </mxCell>
        <mxCell id="cijd9OobjxeHUl-b34iq-14" value="Ficha" style="swimlane;fontStyle=1;align=center;verticalAlign=top;childLayout=stackLayout;horizontal=1;startSize=26;horizontalStack=0;resizeParent=1;resizeParentMax=0;resizeLast=0;collapsible=1;marginBottom=0;whiteSpace=wrap;html=1;" parent="1" vertex="1">
          <mxGeometry x="-158" y="6" width="160" height="34" as="geometry" />
        </mxCell>
        <mxCell id="cijd9OobjxeHUl-b34iq-16" value="" style="line;strokeWidth=1;fillColor=none;align=left;verticalAlign=middle;spacingTop=-1;spacingLeft=3;spacingRight=3;rotatable=0;labelPosition=right;points=[];portConstraint=eastwest;strokeColor=inherit;" parent="cijd9OobjxeHUl-b34iq-14" vertex="1">
          <mxGeometry y="26" width="160" height="8" as="geometry" />
        </mxCell>
        <mxCell id="cijd9OobjxeHUl-b34iq-18" value="EnPartidaSolitario" style="swimlane;fontStyle=1;align=center;verticalAlign=top;childLayout=stackLayout;horizontal=1;startSize=26;horizontalStack=0;resizeParent=1;resizeParentMax=0;resizeLast=0;collapsible=1;marginBottom=0;whiteSpace=wrap;html=1;" parent="1" vertex="1">
          <mxGeometry x="-109.5" y="101" width="160" height="60" as="geometry" />
        </mxCell>
        <mxCell id="cijd9OobjxeHUl-b34iq-19" value="+ field: type" style="text;strokeColor=none;fillColor=none;align=left;verticalAlign=top;spacingLeft=4;spacingRight=4;overflow=hidden;rotatable=0;points=[[0,0.5],[1,0.5]];portConstraint=eastwest;whiteSpace=wrap;html=1;" parent="cijd9OobjxeHUl-b34iq-18" vertex="1">
          <mxGeometry y="26" width="160" height="26" as="geometry" />
        </mxCell>
        <mxCell id="cijd9OobjxeHUl-b34iq-20" value="" style="line;strokeWidth=1;fillColor=none;align=left;verticalAlign=middle;spacingTop=-1;spacingLeft=3;spacingRight=3;rotatable=0;labelPosition=right;points=[];portConstraint=eastwest;strokeColor=inherit;" parent="cijd9OobjxeHUl-b34iq-18" vertex="1">
          <mxGeometry y="52" width="160" height="8" as="geometry" />
        </mxCell>
        <mxCell id="cijd9OobjxeHUl-b34iq-22" value="EnPartidaCoop" style="swimlane;fontStyle=1;align=center;verticalAlign=top;childLayout=stackLayout;horizontal=1;startSize=26;horizontalStack=0;resizeParent=1;resizeParentMax=0;resizeLast=0;collapsible=1;marginBottom=0;whiteSpace=wrap;html=1;" parent="1" vertex="1">
          <mxGeometry x="81" y="103" width="160" height="60" as="geometry" />
        </mxCell>
        <mxCell id="cijd9OobjxeHUl-b34iq-23" value="+ field: type" style="text;strokeColor=none;fillColor=none;align=left;verticalAlign=top;spacingLeft=4;spacingRight=4;overflow=hidden;rotatable=0;points=[[0,0.5],[1,0.5]];portConstraint=eastwest;whiteSpace=wrap;html=1;" parent="cijd9OobjxeHUl-b34iq-22" vertex="1">
          <mxGeometry y="26" width="160" height="26" as="geometry" />
        </mxCell>
        <mxCell id="cijd9OobjxeHUl-b34iq-24" value="" style="line;strokeWidth=1;fillColor=none;align=left;verticalAlign=middle;spacingTop=-1;spacingLeft=3;spacingRight=3;rotatable=0;labelPosition=right;points=[];portConstraint=eastwest;strokeColor=inherit;" parent="cijd9OobjxeHUl-b34iq-22" vertex="1">
          <mxGeometry y="52" width="160" height="8" as="geometry" />
        </mxCell>
        <mxCell id="cijd9OobjxeHUl-b34iq-26" value="StandBy" style="swimlane;fontStyle=1;align=center;verticalAlign=top;childLayout=stackLayout;horizontal=1;startSize=26;horizontalStack=0;resizeParent=1;resizeParentMax=0;resizeLast=0;collapsible=1;marginBottom=0;whiteSpace=wrap;html=1;" parent="1" vertex="1">
          <mxGeometry x="289" y="103" width="160" height="60" as="geometry" />
        </mxCell>
        <mxCell id="cijd9OobjxeHUl-b34iq-27" value="+ field: type" style="text;strokeColor=none;fillColor=none;align=left;verticalAlign=top;spacingLeft=4;spacingRight=4;overflow=hidden;rotatable=0;points=[[0,0.5],[1,0.5]];portConstraint=eastwest;whiteSpace=wrap;html=1;" parent="cijd9OobjxeHUl-b34iq-26" vertex="1">
          <mxGeometry y="26" width="160" height="26" as="geometry" />
        </mxCell>
        <mxCell id="cijd9OobjxeHUl-b34iq-28" value="" style="line;strokeWidth=1;fillColor=none;align=left;verticalAlign=middle;spacingTop=-1;spacingLeft=3;spacingRight=3;rotatable=0;labelPosition=right;points=[];portConstraint=eastwest;strokeColor=inherit;" parent="cijd9OobjxeHUl-b34iq-26" vertex="1">
          <mxGeometry y="52" width="160" height="8" as="geometry" />
        </mxCell>
        <mxCell id="cijd9OobjxeHUl-b34iq-37" value="estado" style="endArrow=block;endFill=1;html=1;edgeStyle=orthogonalEdgeStyle;align=left;verticalAlign=top;rounded=0;fontSize=12;startSize=8;endSize=8;curved=1;exitX=0.432;exitY=1.143;exitDx=0;exitDy=0;exitPerimeter=0;entryX=0.5;entryY=0;entryDx=0;entryDy=0;" parent="1" source="cijd9OobjxeHUl-b34iq-13" edge="1">
          <mxGeometry x="-0.494" y="-22" relative="1" as="geometry">
            <mxPoint x="58" y="15" as="sourcePoint" />
            <mxPoint x="148.99999999999977" y="-66" as="targetPoint" />
            <mxPoint as="offset" />
          </mxGeometry>
        </mxCell>
        <mxCell id="cijd9OobjxeHUl-b34iq-38" value="1" style="edgeLabel;resizable=0;html=1;align=left;verticalAlign=bottom;" parent="cijd9OobjxeHUl-b34iq-37" connectable="0" vertex="1">
          <mxGeometry x="-1" relative="1" as="geometry" />
        </mxCell>
        <mxCell id="ARflq7UUchkOkLwa70od-1" value="estado" style="endArrow=block;endFill=1;html=1;edgeStyle=orthogonalEdgeStyle;align=left;verticalAlign=top;rounded=0;fontSize=12;startSize=8;endSize=8;curved=1;exitX=1.004;exitY=0;exitDx=0;exitDy=0;exitPerimeter=0;entryX=0;entryY=0.5;entryDx=0;entryDy=0;" edge="1" parent="1" source="cijd9OobjxeHUl-b34iq-44">
          <mxGeometry x="-0.494" y="-22" relative="1" as="geometry">
            <mxPoint x="-53" y="-158" as="sourcePoint" />
            <mxPoint x="258" y="-256" as="targetPoint" />
            <mxPoint as="offset" />
          </mxGeometry>
        </mxCell>
        <mxCell id="ARflq7UUchkOkLwa70od-2" value="1" style="edgeLabel;resizable=0;html=1;align=left;verticalAlign=bottom;" connectable="0" vertex="1" parent="ARflq7UUchkOkLwa70od-1">
          <mxGeometry x="-1" relative="1" as="geometry" />
        </mxCell>
        <mxCell id="ARflq7UUchkOkLwa70od-3" value="BotónInicio" style="edgeLabel;html=1;align=center;verticalAlign=middle;resizable=0;points=[];fontSize=12;" vertex="1" connectable="0" parent="ARflq7UUchkOkLwa70od-1">
          <mxGeometry x="-0.1949" y="1" relative="1" as="geometry">
            <mxPoint as="offset" />
          </mxGeometry>
        </mxCell>
        <mxCell id="ARflq7UUchkOkLwa70od-4" value="&#xa;&lt;span style=&quot;color: rgb(0, 0, 0); font-family: Helvetica; font-size: 12px; font-style: normal; font-variant-ligatures: normal; font-variant-caps: normal; font-weight: 700; letter-spacing: normal; orphans: 2; text-align: center; text-indent: 0px; text-transform: none; widows: 2; word-spacing: 0px; -webkit-text-stroke-width: 0px; white-space: normal; background-color: rgb(255, 255, 255); text-decoration-thickness: initial; text-decoration-style: initial; text-decoration-color: initial; display: inline !important; float: none;&quot;&gt;Ranura&lt;/span&gt;&#xa;&#xa;" style="endArrow=block;endFill=1;html=1;edgeStyle=orthogonalEdgeStyle;align=left;verticalAlign=top;rounded=0;fontSize=12;startSize=8;endSize=8;curved=1;exitX=1.004;exitY=0;exitDx=0;exitDy=0;exitPerimeter=0;entryX=-0.019;entryY=-0.077;entryDx=0;entryDy=0;entryPerimeter=0;" edge="1" parent="1" target="cijd9OobjxeHUl-b34iq-4">
          <mxGeometry x="-0.494" y="-22" relative="1" as="geometry">
            <mxPoint x="72" y="-175" as="sourcePoint" />
            <mxPoint x="257" y="-207" as="targetPoint" />
            <mxPoint as="offset" />
          </mxGeometry>
        </mxCell>
        <mxCell id="ARflq7UUchkOkLwa70od-5" value="1" style="edgeLabel;resizable=0;html=1;align=left;verticalAlign=bottom;" connectable="0" vertex="1" parent="ARflq7UUchkOkLwa70od-4">
          <mxGeometry x="-1" relative="1" as="geometry" />
        </mxCell>
        <mxCell id="ARflq7UUchkOkLwa70od-6" value="&#xa;&lt;span style=&quot;color: rgb(0, 0, 0); font-family: Helvetica; font-size: 12px; font-style: normal; font-variant-ligatures: normal; font-variant-caps: normal; font-weight: 700; letter-spacing: normal; orphans: 2; text-align: center; text-indent: 0px; text-transform: none; widows: 2; word-spacing: 0px; -webkit-text-stroke-width: 0px; white-space: normal; background-color: rgb(255, 255, 255); text-decoration-thickness: initial; text-decoration-style: initial; text-decoration-color: initial; display: inline !important; float: none;&quot;&gt;Ranura&lt;/span&gt;&#xa;&#xa;" style="edgeLabel;html=1;align=center;verticalAlign=middle;resizable=0;points=[];fontSize=12;" vertex="1" connectable="0" parent="ARflq7UUchkOkLwa70od-4">
          <mxGeometry x="-0.1949" y="1" relative="1" as="geometry">
            <mxPoint as="offset" />
          </mxGeometry>
        </mxCell>
        <mxCell id="ARflq7UUchkOkLwa70od-8" value="Apagado" style="swimlane;fontStyle=1;align=center;verticalAlign=top;childLayout=stackLayout;horizontal=1;startSize=26;horizontalStack=0;resizeParent=1;resizeParentMax=0;resizeLast=0;collapsible=1;marginBottom=0;whiteSpace=wrap;html=1;" vertex="1" parent="1">
          <mxGeometry x="485" y="101" width="160" height="60" as="geometry" />
        </mxCell>
        <mxCell id="ARflq7UUchkOkLwa70od-9" value="+ field: type" style="text;strokeColor=none;fillColor=none;align=left;verticalAlign=top;spacingLeft=4;spacingRight=4;overflow=hidden;rotatable=0;points=[[0,0.5],[1,0.5]];portConstraint=eastwest;whiteSpace=wrap;html=1;" vertex="1" parent="ARflq7UUchkOkLwa70od-8">
          <mxGeometry y="26" width="160" height="26" as="geometry" />
        </mxCell>
        <mxCell id="ARflq7UUchkOkLwa70od-10" value="" style="line;strokeWidth=1;fillColor=none;align=left;verticalAlign=middle;spacingTop=-1;spacingLeft=3;spacingRight=3;rotatable=0;labelPosition=right;points=[];portConstraint=eastwest;strokeColor=inherit;" vertex="1" parent="ARflq7UUchkOkLwa70od-8">
          <mxGeometry y="52" width="160" height="8" as="geometry" />
        </mxCell>
        <mxCell id="ARflq7UUchkOkLwa70od-15" value="&lt;p style=&quot;margin:0px;margin-top:4px;text-align:center;&quot;&gt;&lt;i&gt;&amp;lt;&amp;lt;Interface&amp;gt;&amp;gt;&lt;/i&gt;&lt;br&gt;&lt;b&gt;Estado&lt;/b&gt;&lt;/p&gt;&lt;br&gt;+ recibirFicha(this)&lt;div&gt;+ pulsarBotónInicio(this)&lt;br&gt;&lt;div&gt;+ concluir()&lt;br&gt;&lt;/div&gt;&lt;/div&gt;" style="verticalAlign=top;align=left;overflow=fill;html=1;whiteSpace=wrap;" vertex="1" parent="1">
          <mxGeometry x="48" y="-92" width="190" height="140" as="geometry" />
        </mxCell>
        <mxCell id="ARflq7UUchkOkLwa70od-18" value="" style="endArrow=block;dashed=1;endFill=0;endSize=12;html=1;rounded=0;fontSize=12;curved=1;entryX=0.5;entryY=1;entryDx=0;entryDy=0;" edge="1" parent="1" target="ARflq7UUchkOkLwa70od-15">
          <mxGeometry width="160" relative="1" as="geometry">
            <mxPoint x="-21" y="101.82" as="sourcePoint" />
            <mxPoint x="139" y="101.82" as="targetPoint" />
          </mxGeometry>
        </mxCell>
        <mxCell id="ARflq7UUchkOkLwa70od-19" value="" style="endArrow=block;dashed=1;endFill=0;endSize=12;html=1;rounded=0;fontSize=12;curved=1;" edge="1" parent="1">
          <mxGeometry width="160" relative="1" as="geometry">
            <mxPoint x="146" y="101" as="sourcePoint" />
            <mxPoint x="142" y="47" as="targetPoint" />
          </mxGeometry>
        </mxCell>
        <mxCell id="ARflq7UUchkOkLwa70od-20" value="" style="endArrow=block;dashed=1;endFill=0;endSize=12;html=1;rounded=0;fontSize=12;curved=1;" edge="1" parent="1">
          <mxGeometry width="160" relative="1" as="geometry">
            <mxPoint x="372" y="100" as="sourcePoint" />
            <mxPoint x="151" y="53" as="targetPoint" />
          </mxGeometry>
        </mxCell>
        <mxCell id="ARflq7UUchkOkLwa70od-21" value="" style="endArrow=block;dashed=1;endFill=0;endSize=12;html=1;rounded=0;fontSize=12;curved=1;exitX=0.5;exitY=0;exitDx=0;exitDy=0;" edge="1" parent="1" source="ARflq7UUchkOkLwa70od-8">
          <mxGeometry width="160" relative="1" as="geometry">
            <mxPoint x="9" y="131.82" as="sourcePoint" />
            <mxPoint x="152" y="53" as="targetPoint" />
          </mxGeometry>
        </mxCell>
      </root>
    </mxGraphModel>
  </diagram>
</mxfile>
